/* XPM */
static const char * const buttons_xpm[] = {
/* XPM */
/* width height ncolors chars_per_pixel */
"30 240 250 2",
/* colors */
"   c #000000",
" . c #B1B1B1",
" X c #AFAFAF",
" o c #ADADAD",
" O c #ABABAB",
" + c #A9A9A9",
" @ c #A7A7A7",
" # c #A5A5A5",
" $ c #A3A3A3",
" % c #A1A1A1",
" & c #9F9F9F",
" * c #9D9D9D",
" = c #9B9B9B",
" - c #999999",
" ; c #979797",
" : c #959595",
" > c #939393",
" , c #919191",
" < c #8F8F8F",
" 1 c #8D8D8D",
" 2 c #8B8B8B",
" 3 c #898989",
" 4 c #878787",
" 5 c #858585",
" 6 c #838383",
" 7 c #7F7F7F",
" 8 c #7D7D7D",
" 9 c #7B7B7B",
" 0 c #797979",
" q c #777777",
" w c #757575",
" e c #737373",
" r c #717171",
" t c #6F6F6F",
" y c #6D6D6D",
" u c #6B6B6B",
" i c #696969",
" p c #676767",
" a c #656565",
" s c #636363",
" d c #616161",
" f c #5F5F5F",
" g c #5D5D5D",
" h c #5B5B5B",
" j c #595959",
" k c #575757",
" l c #555555",
" z c #535353",
" x c #515151",
" c c #4F4F4F",
" v c #FEFEFE",
" b c #4B4B4B",
" n c #FCFCFC",
" m c #494949",
" M c #FAFAFA",
" N c #474747",
" B c #F8F8F8",
" V c #454545",
" C c #F6F6F6",
" Z c #434343",
" A c #F4F4F4",
" S c #414141",
" D c #F2F2F2",
" F c #3F3F3F",
" G c #F0F0F0",
" H c #3D3D3D",
" J c #EEEEEE",
" K c #3B3B3B",
" L c #ECECEC",
" P c #393939",
" I c #EAEAEA",
" U c #373737",
" Y c #E8E8E8",
" T c #353535",
" R c #E6E6E6",
" E c #333333",
" W c #E4E4E4",
" Q c #313131",
" ! c #E2E2E2",
" ~ c #2F2F2F",
" ^ c #E0E0E0",
" / c #2D2D2D",
" ( c #DEDEDE",
" ) c #2B2B2B",
" _ c #DCDCDC",
" ` c #292929",
" ' c #DADADA",
" ] c #272727",
" [ c #D8D8D8",
" { c #252525",
" } c #D6D6D6",
" | c #232323",
".  c #D4D4D4",
".. c #212121",
".X c #D2D2D2",
".o c #1F1F1F",
".O c #D0D0D0",
".+ c #1D1D1D",
".@ c #CECECE",
".# c #1B1B1B",
".$ c #CCCCCC",
".% c #191919",
".& c #CACACA",
".* c #171717",
".= c #C8C8C8",
".- c #151515",
".; c #131313",
".: c #C4C4C4",
".> c #111111",
"., c #C2C2C2",
".< c #0F0F0F",
".1 c #C0C0C0",
".2 c #0D0D0D",
".3 c #BEBEBE",
".4 c #0B0B0B",
".5 c #BCBCBC",
".6 c #090909",
".7 c #BABABA",
".8 c #070707",
".9 c #B8B8B8",
".0 c #050505",
".q c #B6B6B6",
".w c #030303",
".e c #B4B4B4",
".r c #010101",
".t c #B2B2B2",
".y c #AEAEAE",
".u c #ACACAC",
".i c #AAAAAA",
".p c #A8A8A8",
".a c #A6A6A6",
".s c #A4A4A4",
".d c #A2A2A2",
".f c #A0A0A0",
".g c #9E9E9E",
".h c #9C9C9C",
".j c #9A9A9A",
".k c #989898",
".l c #969696",
".z c #949494",
".x c #929292",
".c c #909090",
".v c #8C8C8C",
".b c #8A8A8A",
".n c #888888",
".m c #848484",
".M c #828282",
".N c #808080",
".B c #7E7E7E",
".V c #7C7C7C",
".C c #7A7A7A",
".Z c #787878",
".A c #767676",
".S c #747474",
".D c #727272",
".F c #707070",
".G c #6E6E6E",
".H c #6C6C6C",
".J c #6A6A6A",
".K c #686868",
".L c #666666",
".P c #646464",
".I c #626262",
".U c #606060",
".Y c #5E5E5E",
".T c #5C5C5C",
".R c #5A5A5A",
".E c #585858",
".W c #565656",
".Q c #545454",
".! c #525252",
".~ c #505050",
".^ c #4E4E4E",
"./ c #FFFFFF",
".( c #4C4C4C",
".) c #FDFDFD",
"._ c #4A4A4A",
".` c #FBFBFB",
".' c #484848",
".] c #F9F9F9",
".[ c #464646",
".{ c #F7F7F7",
".} c #444444",
".| c #F5F5F5",
"X  c #424242",
"X. c #F3F3F3",
"XX c #404040",
"Xo c #F1F1F1",
"XO c #3E3E3E",
"X+ c #EFEFEF",
"X@ c #3C3C3C",
"X# c #EDEDED",
"X$ c #3A3A3A",
"X% c #EBEBEB",
"X& c #383838",
"X* c #E9E9E9",
"X= c #363636",
"X- c #E7E7E7",
"X; c #343434",
"X: c #E5E5E5",
"X> c #323232",
"X, c #E3E3E3",
"X< c #303030",
"X1 c #E1E1E1",
"X2 c #2E2E2E",
"X3 c #DFDFDF",
"X4 c #2C2C2C",
"X5 c #DDDDDD",
"X6 c #2A2A2A",
"X7 c #DBDBDB",
"X8 c #282828",
"X9 c #D9D9D9",
"X0 c #262626",
"Xq c #D7D7D7",
"Xw c #242424",
"Xe c #D5D5D5",
"Xr c #D3D3D3",
"Xt c #202020",
"Xy c #D1D1D1",
"Xu c #1E1E1E",
"Xi c #CFCFCF",
"Xp c #1C1C1C",
"Xa c #CDCDCD",
"Xs c #1A1A1A",
"Xd c #CBCBCB",
"Xf c #181818",
"Xg c #C9C9C9",
"Xh c #161616",
"Xj c #C7C7C7",
"Xk c #141414",
"Xl c #C5C5C5",
"Xz c #121212",
"Xx c #C3C3C3",
"Xc c #101010",
"Xv c #C1C1C1",
"Xb c #0E0E0E",
"Xn c #BFBFBF",
"Xm c #0C0C0C",
"XM c #BDBDBD",
"XN c #0A0A0A",
"XB c #BBBBBB",
"XV c #080808",
"XC c #B9B9B9",
"XZ c #060606",
"XA c #B7B7B7",
"XS c #040404",
"XD c #B5B5B5",
"XF c #020202",
"XG c #B3B3B3",
"XH c None",
/* pixels */
"./././ n =.S.S.S.S.S.S.S.S.S.S.S.S - C./././././././././././",
"././././ a                           t v././././././././././",
"././././X3XkXF.E.S.S.S.S.S.S.SX>    .I.)././././././././././",
"./././././.n   k n./././././X. K  XN.3./././././././././././",
"./././././ DX4.0.9./././././XC.6  XX A./././././././././././",
"././././././ .XS E A./././ M h  XS.g././././././././././././",
"././././././ n.^.r ,./././. .-  X0X-././././././././././././",
"./././././././Xr.2.%X,./ v 8.r.r 9 v././././././././././././",
"././././././././.A  .K v YX8  XkXr./././././././././././././",
"././././././././ LXt.6Xj.fXS  .E M./././././././././././././",
"./././././././././.fXFX$ H  XVXA././././././././././././././",
"./././././././././.]XO  .r   P D././././././././././././././",
"././././././././././XlXV  .w.l./././././././././././././././",
"././././././././././ v u  ..X,./././././././././././././././",
"./././././././././././.{ -.s.)./././././././././././././././",
"./././.`.k.S.S.S.S.S.S.S.S.S.S.S.S.l.|./././././././././././",
"./././ v.T                           d n././././././././././",
"././././Xq.>.w h.S.S.S.S.S.S.S.S.D.+XZ.7././././././././././",
"./././././.B   g.)././././././././.u.w T.|./././././././././",
"./././././X#X0.8.3././././././././ M._.r >./././././././././",
"././././././ @.w P C././././././././.@XmXs W././././././././",
"././././././.].[.r.k././././././././ v r  .J v./././././././",
"./././././././.&.4.+ R././././././././ YXuXNXg./././././././",
"./././././././ v.H   t v././././././././ =.r Z.]././././././",
"././././././././X:.#.4.$././././././././.{ KXF #././././././",
"./././././././././.l.r.' M././././././././.1.8Xw L./././././",
"./././././././././.| U.w +././././././././.).U  .V./././././",
"././././././././././.5XZXp.D.S.S.S.S.S.S.S.S.T.wXcXe././././",
"././././././././././.) s                          .R.)./././",
"./././././././././././ C.l.G y y y y y y y y y y y.x.`./././",
"././././././././././././././././././././././././././././././",
"././././././././././././././././././././././././././././././",
"././././././././././././././././././././././././././././././",
"././././././././././././././././././././././././././././././",
"././././././././././././././././././././././././././././././",
"././././././././././././././././././././././././././././././",
"./././././././ _ w.F.F.F.F.F 9Xe././././././././././././././",
"./././././././XqXb            Xf './././././././././././././",
"./././././././ v e  .o.F r r b   k n././././././././././././",
"././././././././X*.o.6Xj././ G )XZ.9././././././././././././",
"./././././././././.hXFX  B././ oXS E A./././././././././././",
"./././././././././.{X@XF $././ M.(.r ,./././././././././././",
"././././././././././.,XVXs.S q q l.r.% !././././././././././",
"././././././././././.) i               t././././././././././",
"./././././././././././ C ; u.J.J.J.J.J.j.)./././././././././",
"./././ n.g q q q q q q.f.]./././././././././././././././././",
"./././ v s            .r.D v././././././././././././././././",
"././././ _.;XF l.F.F yXhXNXg././././././././././././././././",
"./././././ 5   k n././.j.r Z.]./././././././././././././././",
"./././././ G ).0.9././ C KXF #./././././././././././././././",
"././././././ o.wX; A././.1.8Xw L././././././././././././././",
"././././././ M b.r ,././.) f  .V././././././././././././././",
"./././././././.O.2.%X,././ (.-Xc }./././././././././././././",
"./././././././ v e  .K v././ 3   z n././././././././././././",
"././././././././X*.o.6Xj././Xo /.0XD././././././././././././",
"./././././././././.hXFX  B././ .XS QX../././././././././././",
"./././././././././.{X@XF $././.` c.r 1./././././././././././",
"././././././././././.,XVXs r.S.S l.r.*X1././././././././././",
"././././././././././.) i              .H v./././././././././",
"./././././././././././.{ -.G y y y y y =.)./././././././././",
"././././././X-.i.n 9.A w.C 1XG Y././././././././././././././",
"./././././XoXXXF              .>.H L././././././././././././",
"./././././X%Xs  Xp.~ s.J.H.K k /.wX<X,./././././././././././",
"./././././ v j  .G v./././././ M 2XF.[ B././././././././././",
"././././././. Xk.%X-././././././.|X2XF.a././././././././././",
"./././././././.O 7X:./././././ L.d.#  .! v./././././././././",
"././././././././././././././.qX>.w  .r s.)./././././././././",
"./././././././././././././ v z    Xf.KX1././././././././././",
"././././././././././././././ ;  ...X.)./././././././././././",
"././././././././././././././ G /.0Xn././././././././././././",
"./././././././././././././././X5.J.9././././././././././././",
"././././././././././././././././././././././././././././././",
"././././././././././././././././ v.p.s.]././././././././././",
"./././././././././././././././././ 8XF.B././././././././././",
"./././././././././././././././././ B =.g v./././././././././",
"./././././././././ v @ # M./././././././././././././././././",
"././././././././././ e.r 0 v././././././././././././././././",
"././././././././././ WXsXm.@././././././././././././././././",
"./././././././././././.z.r m M./././././././././././././././",
"./././././././././././.| T.w O./././././././././././././././",
"././././././././././././.7XZ `X+././././././././././././././",
"./././././././X7 9.A.A.A eXs  .(.A.A.A.A.B.O././././././././",
"./././././././ }.>                        Xz }./././././././",
"././././././././Xd.S u u u u.[  .* i u u u t }./././././././",
"././././././././././././././X+X8XZXB././././././././././././",
"./././././././././././././././.i.wX=.|./././././././././././",
"./././././././././././././././ M m.r.z./././././././././././",
"././././././././././././././././XaXm.# W././././././././././",
"././././././././././././././././ v q.r.D././././././././././",
"./././././././././././././././././.].h *.)./././././././././",
"././././././././././././././././././././././././././././././",
"././././././././././././././././././././././././././././././",
"././././././././././././././././././././././././././././././",
"././././././././././././././././././././././././././././././",
"././././././././././././././././././././././././././././././",
"././././././././././././././././././././././././././././././",
"./././././././X5 9.A.A.A.A.A.A.A.A.A.A.A 8Xi././././././././",
"./././././././ [Xz                        .>. ./././././././",
"././././././././Xa.S u u u u u u u u u u u t. ./././././././",
"././././././././././././././././././././././././././././././",
"././././././././././././././././././././././././././././././",
"././././././././././././././././././././././././././././././",
"././././././././././././././././././././././././././././././",
"././././././././././././././././././././././././././././././",
"././././././././././././././././././././././././././././././",
"././././././././././././././././././././././././././././././",
"././././././././././././././././././././././././././././././",
"././././././././././././././././././././././././././././././",
"././././././././././././././././././././././././././././././",
"././././././././././././././././././././././././././././././",
"././././././././././././././././././././././././././././././",
"./././././././X3.V.A.A.A.A.A.A.A.A.A.A.A 8.@././././././././",
"./././././././ [Xb                        .<.X./././././././",
"./././././././ v e  .+.J u u u u u u u u xXF N n././././././",
"././././././././X*.o.6Xj././././././././.{XOXF.u././././././",
"./././././././././.hXFX  B././././././././XxXV { D./././././",
"./././././././././.{X@XF $././././././././.) s  .M./././././",
"././././././././././.,XVXs.S q q q q q q q q.UXS.<X5././././",
"././././././././././.) i                           g././././",
"./././././././././././ C.l.J i i i i i i i i i i i 1.`./././",
"./././ n.h.Z.Z.Z.Z.Z.Z.Z.Z.Z.Z.Z 0.f B./././././././././././",
"./././ v h                        .r i.)././././././././././",
"././././X9Xb.w.Q i i i i i i i i p.%.8.1././././././././././",
"./././././.B  .P.)././././././././ #.wX$ C./././././././././",
"./././././ G |XV.:Xa 9 0 0 0 0 0 2 ^.}.r.j./././././././././",
"././././././ @XFXOXD.8             Q.5XNXuX-././././././././",
"././././././.` ZXF.gXC y.K.K.K.K.K.AX%.J   r v./././././././",
"./././././././.$.6.. I././././././././ W.#Xm.@./././././././",
"././././././././ u   wX+.n.C.C.C.C.C 7Xj.z.r m M././././././",
"././././././././ Y.%Xb., )            XNXAX=.w O././././././",
"./././././././././.l.r.^ ' 0 p p p p p iXlXBXZ `X+./././././",
"./././././././././.{ TXS X././././././././ n j  .M./././././",
"././././././././././XM.0.. 8 7 7 7 7 7 7 7 7.I.wXz '././././",
"././././././././././ v f                           f v./././",
"./././././././././././X. 2 s.I.I.I.I.I.I.I.I.I.I.I.b.`./././",
"./././ n % X M././././././././ v.t &.{./././././././././././",
"./././ v aXF N. ./././././././ I ).r.H v././././././././././",
"././././ A.ZXN.2.MX../././././ $.0  .W.`././././././././././",
"././././././.$XO.rX2.5 v././.|.}  XVXG./././././././././././",
"./././././././ B.lXhXZ.PX-./Xv.4   UXo./././././././././././",
"./././././././././X1 jXS.#.g.U  .w.z././././././././././././",
"././././././././././.)XG ]XF.0  ..X,././././././././././././",
"././././././././././././ J S     FXo././././././././././././",
"././././././././././././ I )  .w.r ~.5 v././././././././././",
"././././././././././././ $.0  .~.x.-XZ.PX-./././././././././",
"./././././././././././.|.}  XVXG./ ^ jXS.# % M./././././././",
"./././././././././././XvXm   UXo././.).tX0XF.'Xe././././././",
"././././././././././.).P  .w.z./././././X+.AXNXb 6 C././././",
"././././././././././ v u  ..X,./././././././.$ H.r.L v./././",
"./././././././././././.| , %.)././././././././ B.d <.`./././",
"./././.).f.Z.Z.Z.Z.Z.Z.Z.Z.Z.Z.Z.Z * C./././././././././././",
"./././ v i                          .K v././././././././././",
"././././.|.x.J i i i i i i i i i i i ,.`././././././././././",
"././././././././././././././././././././././././././././././",
"././././././././././././././././././././././././././././././",
"././././././././././././././././././././././././././././././",
"././././././././././././././././././././././././././././././",
"././././././././././././././././././././././././././././././",
"././././././././././././././././././././././././././././././",
"././././././././././././././././././././././././././././././",
"././././././././././././././././././././././././././././././",
"././././././././././././././././././././././././././././././",
"././././././././././././././././././././././././././././././",
"././././././././././././././././././././././././././././././",
"././././././././././././././././././././././././././././././",
"././././././././././././././././././././././././././././././",
"././././ vX+.`././././././././././ D B./././././././././././",
"././././.{ SXX.= v./././././././ A.( Q.X././././././././././",
"./././././.aXc.6.DX#././././././XMXN  .T v./././././././././",
"././././././ [.(XF |.y n./././.`.Y  .w -././././././././././",
"./././././././.`.aXu.w.Q (././ }Xh  XwX:././././././././././",
"./././././././././X* i.8.; , C.B.r.r.Z.)././././././././././",
"././././././././././ vXvX>.r T.o  .;Xy./././././././././././",
"././././././././././././.| 4.<    .E M./././././././././././",
"././././././././././././././ [.^XhXC././././././././././././",
"././././././././././ A Y Y Y YX:XiX, Y Y Y Y YX.././././././",
"././././././././././ 0XzXzXzXzXzXzXzXzXzXzXzXz.o.a./././././",
"././././././././././XrX4XNXNXNXNXNXNXNXNXNXNXNXN /X.././././",
"./././././././././././ C ( _ _ _ _ _ _ _ _ _ _ _ !.)././././",
"././././././././././././././././././././././././././././././",
"./././ n *.Z.Z.Z.Z.Z.Z.Z.Z.Z.Z.Z 0 &.{./././././././././././",
"./././ v.Y                        .r a.)././././././././././",
"././././X7.<XF z i i i i i i i i pXsXZXM././././././././././",
"./././././.N   d.)././././././././.p.wX& C./././././././././",
"./././././ G {XVXv././././././././ M N.r ;./././././././././",
"././././././.iXFX@.{././././././././.$.4Xp R././././././././",
"././././././.`.[.r.T 8 8 8 8.nX5././ v.G   y v./././././././",
"./././././././Xa.6            .+X3././ RXp.4Xd./././././././",
"././././././././.G  Xu s.P.P S   g.)././ ;.r.[ M././././././",
"././././././././X*XsXmXi././ JX0.8.3././ CX&.w.p././././././",
"./././././././././.k.r b M././ @.w P C././.3.8 ] J./././././",
"./././././././././ B U.w.u././.].[.r.k././.).T   7./././././",
"././././././././././XnXZ.o 8 7 7 j.r.*.C 7 7.P.w.> [././././",
"././././././././././ v.I                          .T v./././",
"./././././././././././ A < y y y y y y y y y y y y.c.`./././",
"./././././././././.).x ,.{./././././././././././././././././",
"././././././././././.A  .F v././././././././././././././././",
"././././././././././X-.+XN.&././././././././././././././././",
"./././././././././././ -.r V.]./././././././././././././././",
"./././././././././././ C P.w @./././././././././././././././",
"././././././././././././.3.8X0 J././././././././././././././",
"./././././././X3 , ^././.).T   7./././ L ,Xr././././././././",
"./././././././XqXcXk.x.{./ _.;.> [././ =.w.;Xe./././././././",
"././././././././.: Q.r KXg v.m   k nX. H  XNXv./././././././",
"./././././././././ A 5.<.6.S (X6XZXCXC.6   F A./././././././",
"./././././././././././Xq._XF {.YXF Q.~  XS *././././././././",
"././././././././././././.` $.+.r.r  XF   ]X-././././././././",
"././././././././././././././ Y pXZ    .r 8 v././././././././",
"./././././././././././././././ vXnX<  .-Xe./././././././././",
"./././././././././././././././././ A.l :.`./././././././././",
"./././././././././ M.b < D./././././././././././././././././",
"./././././././././XrXk   /.7 v./././././././././././././././",
"././././././././ v.C.r    .0.I R././././././././././././././",
"././././././././ R {  XF  .rXFXs & M././././././././././././",
"././././././././ =.w  .QX=XF gX8XF VXr./././././././././././",
"./././././././X. H  XNXBXn.8 { ( 0.4.2.NX../././././././././",
"./././././././Xn.6   F A.) f   8 vXa F.r /.1././././././././",
"./././././././XqXkXS *././ (.-Xc }./.] ;Xh.< }./././././././",
"././././././././Xq.lX#./././ 3   z n././ W.lX1./././././././",
"././././././././././././././ DX2.0.e././././././././././././",
"./././././././././././././././.tXSX< D./././././././././././",
"./././././././././././././././.` x.r.v./././././././././././",
"././././././././././././././././. .<XhX3././././././././././",
"./././././././././././././././././.N.r p v./././././././././",
"./././././././././././././././././ M *.l n./././././././././",
"././././././././././././././././././././././././././././././",
"././././ vX+X*X*X*X*X*X*X*X*X*X*X* I.]./././././././././././",
"././././.{ Z.;.;.;.;.;.;.;.;.;.;.;.;X>Xr././././././././././",
"./././././.a.*.6.6.6.6.6.6.6.6.6.6.6.6.I v./././././././././",
"././././././X#X7X7X7X7X7 '.$X9X7X7X7X7X*././././././././././",
"././././././././././././.X ].QX7././././././././././././././",
"./././././././././././.) q.r  .>.v C././././././././././././",
"./././././././././././X:Xw  .>X4.rX=Xl v././././././././././",
"./././././././././././.k.w   f D.v.>XV yX%./././././././././",
"././././././././././ D K  XN.3././ '.~.w...i n./././././././",
"././././././././././XA.6   S A./././ n +Xt.w.~X7././././././",
"././././././././././.D  XS.f././././././X% y.8Xz.a./././././",
"././././././././././Xr )X<X*./././././././ v.: PX4 D././././",
"./././././././././././.|X- v./././././././././.] W.)././././",
"././././././././././././././././././././././././././././././"
};
