/* XPM */
static const char * const buttons_xpm[] = {
/* width height ncolors chars_per_pixel */
"24 192 241 2",
/* colors */
"   c #000000",
" . c #B1B1B1",
" X c #AFAFAF",
" o c #ADADAD",
" O c #ABABAB",
" + c #A7A7A7",
" @ c #A5A5A5",
" # c #A3A3A3",
" $ c #A1A1A1",
" % c #9B9B9B",
" & c #999999",
" * c #979797",
" = c #939393",
" - c #919191",
" ; c #8F8F8F",
" : c #8D8D8D",
" > c #8B8B8B",
" , c #898989",
" < c #878787",
" 1 c #858585",
" 2 c #838383",
" 3 c #818181",
" 4 c #7F7F7F",
" 5 c #7D7D7D",
" 6 c #797979",
" 7 c #777777",
" 8 c #757575",
" 9 c #737373",
" 0 c #717171",
" q c #6F6F6F",
" w c #6D6D6D",
" e c #6B6B6B",
" r c #696969",
" t c #676767",
" y c #656565",
" u c #636363",
" i c #616161",
" p c #5F5F5F",
" a c #5D5D5D",
" s c #5B5B5B",
" d c #595959",
" f c #575757",
" g c #555555",
" h c #535353",
" j c #4F4F4F",
" k c #4D4D4D",
" l c #FEFEFE",
" z c #4B4B4B",
" x c #FCFCFC",
" c c #494949",
" v c #FAFAFA",
" b c #474747",
" n c #F8F8F8",
" m c #454545",
" M c #F6F6F6",
" N c #434343",
" B c #F4F4F4",
" V c #414141",
" C c #F2F2F2",
" Z c #3F3F3F",
" A c #F0F0F0",
" S c #3D3D3D",
" D c #EEEEEE",
" F c #ECECEC",
" G c #393939",
" H c #EAEAEA",
" J c #373737",
" K c #E8E8E8",
" L c #353535",
" P c #E6E6E6",
" I c #333333",
" U c #E4E4E4",
" Y c #313131",
" T c #E2E2E2",
" R c #2F2F2F",
" E c #E0E0E0",
" W c #2D2D2D",
" Q c #DEDEDE",
" ! c #DCDCDC",
" ~ c #292929",
" ^ c #DADADA",
" / c #272727",
" ( c #D8D8D8",
" ) c #252525",
" _ c #D6D6D6",
" ` c #232323",
" ' c #D4D4D4",
" ] c #212121",
" [ c #D2D2D2",
" { c #1F1F1F",
" } c #D0D0D0",
" | c #1D1D1D",
".  c #CECECE",
".. c #1B1B1B",
".X c #CCCCCC",
".o c #191919",
".O c #CACACA",
".+ c #171717",
".@ c #C8C8C8",
".# c #151515",
".$ c #C6C6C6",
".% c #131313",
".& c #C4C4C4",
".* c #111111",
".= c #C2C2C2",
".- c #0F0F0F",
".; c #C0C0C0",
".: c #0D0D0D",
".> c #BEBEBE",
"., c #0B0B0B",
".< c #BCBCBC",
".1 c #090909",
".2 c #BABABA",
".3 c #070707",
".4 c #B8B8B8",
".5 c #050505",
".6 c #B6B6B6",
".7 c #030303",
".8 c #010101",
".9 c #B2B2B2",
".0 c #B0B0B0",
".q c #AEAEAE",
".w c #ACACAC",
".e c #AAAAAA",
".r c #A8A8A8",
".t c #A6A6A6",
".y c #A4A4A4",
".u c #A2A2A2",
".i c #A0A0A0",
".p c #9E9E9E",
".a c #9C9C9C",
".s c #9A9A9A",
".d c #989898",
".f c #969696",
".g c #949494",
".h c #929292",
".j c #909090",
".k c #8E8E8E",
".l c #8A8A8A",
".z c #888888",
".x c #868686",
".c c #848484",
".v c #808080",
".b c #7E7E7E",
".n c #7C7C7C",
".m c #7A7A7A",
".M c #787878",
".N c #767676",
".B c #747474",
".V c #727272",
".C c #707070",
".Z c #6E6E6E",
".A c #6C6C6C",
".S c #6A6A6A",
".D c #686868",
".F c #646464",
".G c #626262",
".H c #606060",
".J c #5E5E5E",
".K c #5C5C5C",
".L c #5A5A5A",
".P c #585858",
".I c #545454",
".U c #505050",
".Y c #4E4E4E",
".T c #FFFFFF",
".R c #FDFDFD",
".E c #4A4A4A",
".W c #FBFBFB",
".Q c #484848",
".! c #F9F9F9",
".~ c #464646",
".^ c #F7F7F7",
"./ c #444444",
".( c #F5F5F5",
".) c #424242",
"._ c #F3F3F3",
".` c #F1F1F1",
".' c #3E3E3E",
".] c #EFEFEF",
".[ c #3C3C3C",
".{ c #EDEDED",
".} c #3A3A3A",
".| c #EBEBEB",
"X  c #383838",
"X. c #E9E9E9",
"XX c #363636",
"Xo c #E7E7E7",
"XO c #343434",
"X+ c #E5E5E5",
"X@ c #323232",
"X# c #E3E3E3",
"X$ c #303030",
"X% c #E1E1E1",
"X& c #2E2E2E",
"X* c #DFDFDF",
"X= c #2C2C2C",
"X- c #DDDDDD",
"X; c #2A2A2A",
"X: c #DBDBDB",
"X> c #282828",
"X, c #D9D9D9",
"X< c #262626",
"X1 c #D7D7D7",
"X2 c #242424",
"X3 c #D5D5D5",
"X4 c #222222",
"X5 c #D3D3D3",
"X6 c #202020",
"X7 c #D1D1D1",
"X8 c #1E1E1E",
"X9 c #CFCFCF",
"X0 c #1C1C1C",
"Xq c #CDCDCD",
"Xw c #1A1A1A",
"Xe c #CBCBCB",
"Xr c #181818",
"Xt c #C9C9C9",
"Xy c #161616",
"Xu c #C7C7C7",
"Xi c #141414",
"Xp c #C5C5C5",
"Xa c #121212",
"Xs c #C3C3C3",
"Xd c #101010",
"Xf c #C1C1C1",
"Xg c #0E0E0E",
"Xh c #BFBFBF",
"Xj c #0C0C0C",
"Xk c #BDBDBD",
"Xl c #0A0A0A",
"Xz c #BBBBBB",
"Xx c #080808",
"Xc c #B9B9B9",
"Xv c #060606",
"Xb c #B7B7B7",
"Xn c #040404",
"Xm c #B5B5B5",
"XM c #020202",
"XN c #B3B3B3",
"XB c None",
/* pixels */
".T.T.` r a a a a a a a a a.v.(.T.T.T.T.T.T.T.T.T",
".T.T x m  XlXjXjXjXjXjXl     *.T.T.T.T.T.T.T.T.T",
".T.T.TXq.3.SX.X.X.X.X..e.7.1.O.T.T.T.T.T.T.T.T.T",
".T.T.T.T r.: (.T.T.T.R.K  ./ v.T.T.T.T.T.T.T.T.T",
".T.T.T.TXoXy h.R.T.T !XaXM.r.T.T.T.T.T.T.T.T.T.T",
".T.T.T.T.T.hXnXc.T.T 2  X<.].T.T.T.T.T.T.T.T.T.T",
".T.T.T.T.T.^ R Y.^ A /   3.T.T.T.T.T.T.T.T.T.T.T",
".T.T.T.T.T.TXb.7 =.eXM.*X:.T.T.T.T.T.T.T.T.T.T.T",
".T.T.T.T.T.T l.UXyXX  .L.R.T.T.T.T.T.T.T.T.T.T.T",
".T.T.T.T.T.T.TX1.,  XvXk.T.T.T.T.T.T.T.T.T.T.T.T",
".T.T.T.T.T.T.T.T.M   J.^.T.T.T.T.T.T.T.T.T.T.T.T",
".T.T.T.T.T.T.T.T M.v ..T.T.T.T.T.T.T.T.T.T.T.T.T",
".T.T.].D a a a a a a a a a.b B.T.T.T.T.T.T.T.T.T",
".T.T.W.'  XlXjXjXjXjXjXjXjXM.Z.T.T.T.T.T.T.T.T.T",
".T.T.T.$Xv qX.X.X.X.X.X.X. q.1X9.T.T.T.T.T.T.T.T",
".T.T.T l.G.- !.T.T.T.T.T.T.|X0.Q x.T.T.T.T.T.T.T",
".T.T.T.T T.%.P l.T.T.T.T.T.T %.7.q.T.T.T.T.T.T.T",
".T.T.T.T.T ,Xn.>.T.T.T.T.T.T n JX>._.T.T.T.T.T.T",
".T.T.T.T.T B ~ L n.T.T.T.T.T.T.;.5 <.T.T.T.T.T.T",
".T.T.T.T.T.T.0.7 &.T.T.T.T.T.T l.LXaX%.T.T.T.T.T",
".T.T.T.T.T.T x c.. H.T.T.T.T.T.TX-.-.H l.T.T.T.T",
".T.T.T.T.T.T.TX7.1 wX.X.X.X.X.X.X. 0Xv.&.T.T.T.T",
".T.T.T.T.T.T.T.T 0XMXjXjXjXjXjXjXjXl   S v.T.T.T",
".T.T.T.T.T.T.T.T B 5 f f f f f f f f f.G D.T.T.T",
".T.T.T.T.T.T.T.T.T.T.T.T.T.T.T.T.T.T.T.T.T.T.T.T",
".T.T.T.T.T.T.T.T.T.T.T.T.T.T.T.T.T.T.T.T.T.T.T.T",
".T.T.T.T.T.T.T.T.T.T.T.T.T.T.T.T.T.T.T.T.T.T.T.T",
".T.T.T.T.T.T.T.T.T.T.T.T.T.T.T.T.T.T.T.T.T.T.T.T",
".T.T.T.T.T.T x x x x x.T.T.T.T.T.T.T.T.T.T.T.T.T",
".T.T.T.T.TX9X= ~ ~ ~ ~.U K.T.T.T.T.T.T.T.T.T.T.T",
".T.T.T.T.T.(X&XMX<X; ~.3 s l.T.T.T.T.T.T.T.T.T.T",
".T.T.T.T.T.TXm.7 - x x.x.5.;.T.T.T.T.T.T.T.T.T.T",
".T.T.T.T.T.T.R.YXr K.T._X>X  n.T.T.T.T.T.T.T.T.T",
".T.T.T.T.T.T.TX3.,.D.|.| %XM.a.T.T.T.T.T.T.T.T.T",
".T.T.T.T.T.T.T.T.NXM.:.:Xj.8X0.{.T.T.T.T.T.T.T.T",
".T.T.T.T.T.T.T.T.(.b g g g g.PX1.T.T.T.T.T.T.T.T",
".T.T C.A p p p p.CX+.T.T.T.T.T.T.T.T.T.T.T.T.T.T",
".T.T x N  .1.,.,.7.).W.T.T.T.T.T.T.T.T.T.T.T.T.T",
".T.T.T.O.3 r K K.sXM.t.T.T.T.T.T.T.T.T.T.T.T.T.T",
".T.T.T.T t.: (.T v.' ` A.T.T.T.T.T.T.T.T.T.T.T.T",
".T.T.T.TX+.# h.R.T.$Xv 4.T.T.T.T.T.T.T.T.T.T.T.T",
".T.T.T.T.T ;XnXc.T l.G.- !.T.T.T.T.T.T.T.T.T.T.T",
".T.T.T.T.T.(X& Y.^.T T.%.P l.T.T.T.T.T.T.T.T.T.T",
".T.T.T.T.T.TXm.7.g.T.T ,Xn.>.T.T.T.T.T.T.T.T.T.T",
".T.T.T.T.T.T.R.YXr K.T BX; L n.T.T.T.T.T.T.T.T.T",
".T.T.T.T.T.T.TX3.,.DX.X..aXM &.T.T.T.T.T.T.T.T.T",
".T.T.T.T.T.T.T.T.N.8XjXj.,.8...|.T.T.T.T.T.T.T.T",
".T.T.T.T.T.T.T.T M.v f f f f.L _.T.T.T.T.T.T.T.T",
".T.T.T.TXo.k.S.H.J.G.N.r.].T.T.T.T.T.T.T.T.T.T.T",
".T.T.T.T.A  .8Xv.1.1.3.8Xw X.T.T.T.T.T.T.T.T.T.T",
".T.T.T.T <   5 ! U PX#.  rXxXc.T.T.T.T.T.T.T.T.T",
".T.T.T.T HX8 j l.T.T.T.T nX=X>.(.T.T.T.T.T.T.T.T",
".T.T.T.T.TX-.y x.T.T.TX- r.:XMXu.T.T.T.T.T.T.T.T",
".T.T.T.T.T.T.T.T.T.T.!.'  Xv.~X..T.T.T.T.T.T.T.T",
".T.T.T.T.T.T.T.T.T.T.! /.3.w.!.T.T.T.T.T.T.T.T.T",
".T.T.T.T.T.T.T.T.T.T.T 2.7.=.T.T.T.T.T.T.T.T.T.T",
".T.T.T.T.T.T.T.T.T.T.T.]X4 Z v.T.T.T.T.T.T.T.T.T",
".T.T.T.T.T.T.T.T.T.T.T.T.;X4. .T.T.T.T.T.T.T.T.T",
".T.T.T.T.T.T.T.T.T.T.T.T.T.D N.`.T.T.T.T.T.T.T.T",
".T.T.T.T.T.T.T.T.T.T.T.T.TX+.Z ^.T.T.T.T.T.T.T.T",
".T.T.T.T.T.T.T !.N K.T.T.T.T.T.T.T.T.T.T.T.T.T.T",
".T.T.T.T.T.T.T DX8 b.W.T.T.T.T.T.T.T.T.T.T.T.T.T",
".T.T.T.T.T.T.T.T.pXM O.T.T.T.T.T.T.T.T.T.T.T.T.T",
".T.T.T.T.T.T.T.T.! GX< C.T.T.T.T.T.T.T.T.T.T.T.T",
".T.T.T.T.T.T.R.R.R.;.5.c.R.R.R.R.T.T.T.T.T.T.T.T",
".T.T.T.T.TXqX$ W WX=Xx.3X= W WX&.A.^.T.T.T.T.T.T",
".T.T.T.T.T.^ t /X<X< )XvXv )X<X<X>Xt.T.T.T.T.T.T",
".T.T.T.T.T.T.T x.W.W.W 2.5Xh.W.W.W l.T.T.T.T.T.T",
".T.T.T.T.T.T.T.T.T.T.T CX<.}.!.T.T.T.T.T.T.T.T.T",
".T.T.T.T.T.T.T.T.T.T.T.T OXM.p.T.T.T.T.T.T.T.T.T",
".T.T.T.T.T.T.T.T.T.T.T.T.W.~X8 D.T.T.T.T.T.T.T.T",
".T.T.T.T.T.T.T.T.T.T.T.T.T P.Z (.T.T.T.T.T.T.T.T",
".T.T.T.T.T.T.T.T.T.T.T.T.T.T.T.T.T.T.T.T.T.T.T.T",
".T.T.T.T.T.T.T.T.T.T.T.T.T.T.T.T.T.T.T.T.T.T.T.T",
".T.T.T.T.T.T.T.T.T.T.T.T.T.T.T.T.T.T.T.T.T.T.T.T",
".T.T.T.T.T.T.T.T.T.T.T.T.T.T.T.T.T.T.T.T.T.T.T.T",
".T.T.T.T.T.T.R.R.R.R.R.R.R.R.R.R.T.T.T.T.T.T.T.T",
".T.T.T.T.TX9X$ W W W W W W W WX& e.^.T.T.T.T.T.T",
".T.T.T.T.T.^.D /X<X<X<X<X<X<X<X<X>Xu.T.T.T.T.T.T",
".T.T.T.T.T.T.T x.W.W.W.W.W.W.W.W.W l.T.T.T.T.T.T",
".T.T.T.T.T.T.T.T.T.T.T.T.T.T.T.T.T.T.T.T.T.T.T.T",
".T.T.T.T.T.T.T.T.T.T.T.T.T.T.T.T.T.T.T.T.T.T.T.T",
".T.T.T.T.T.T.T.T.T.T.T.T.T.T.T.T.T.T.T.T.T.T.T.T",
".T.T.T.T.T.T.T.T.T.T.T.T.T.T.T.T.T.T.T.T.T.T.T.T",
".T.T.T.T.T.T.T.T.T.T.T.T.T.T.T.T.T.T.T.T.T.T.T.T",
".T.T.T.T.T.T.T.T.T.T.T.T.T.T.T.T.T.T.T.T.T.T.T.T",
".T.T.T.T.T.T.T.T.T.T.T.T.T.T.T.T.T.T.T.T.T.T.T.T",
".T.T.T.T.T.T.T.T.T.T.T.T.T.T.T.T.T.T.T.T.T.T.T.T",
".T.T.T.T.T.T.R.R.R.R.R.R.R.R.R.R.T.T.T.T.T.T.T.T",
".T.T.T.T.TX7X$ W W W W W W W WX& r n.T.T.T.T.T.T",
".T.T.T.T.T.(X&XMX4X<X<X<X<X<X< `.7 :.T.T.T.T.T.T",
".T.T.T.T.T.TXm.7.j.W.W.W.W.W.W v.KXa P.T.T.T.T.T",
".T.T.T.T.T.T.R.YXr K.T.T.T.T.T.TX*.*.F.T.T.T.T.T",
".T.T.T.T.T.T.TX3.,.D.|.|.|.|.|.|.| 8.5.O.T.T.T.T",
".T.T.T.T.T.T.T.T.NXM.:.:.:.:.:.:.:.,   Z x.T.T.T",
".T.T.T.T.T.T.T.T.(.b.I.I.I.I.I.I.I.I.I.J.{.T.T.T",
".T.T A e.H.H.H.H.H.H.H.H.H.x M.T.T.T.T.T.T.T.T.T",
".T.T x S  .3.1.1.1.1.1.1.1.8.B.T.T.T.T.T.T.T.T.T",
".T.T.TXu.5 0 U U U U U U U.DXlX5.T.T.T.T.T.T.T.T",
".T.T.T.T i.* Q ..g.g.g.g.a '.o k x.T.T.T.T.T.T.T",
".T.T.T.TX#.* a q.8         G -.7XN.T.T.T.T.T.T.T",
".T.T.T.T.T ,.5XhXuXcXcXcXcXp B IX=.(.T.T.T.T.T.T",
".T.T.T.T.T.(X>.}.^ }XuXuXuXuX5XcXn :.T.T.T.T.T.T",
".T.T.T.T.T.T.0.7 & L        XM.N gXi U.T.T.T.T.T",
".T.T.T.T.T.T.R.QX8X7.k 1 1 1 1 @ (.: y l.T.T.T.T",
".T.T.T.T.T.T.T [Xx 9 D D D D D D D.C.3Xt.T.T.T.T",
".T.T.T.T.T.T.T.T.CXMXdXdXdXdXdXdXd.:   V.W.T.T.T",
".T.T.T.T.T.T.T.T._.B.Y.Y.Y.Y.Y.Y.Y.Y.Y.L D.T.T.T",
".T.T.` 7. .T.T.T.T.T.T.T.< 1.(.T.T.T.T.T.T.T.T.T",
".T.T.W.K.1 7 C.T.T.T.T.! V  .j.T.T.T.T.T.T.T.T.T",
".T.T.T x #Xw /Xb l.T.T.$Xx.3.=.T.T.T.T.T.T.T.T.T",
".T.T.T.T.TX..G.3.J P l u   S n.T.T.T.T.T.T.T.T.T",
".T.T.T.T.T.T lXzX;.+.l.#XM.i.T.T.T.T.T.T.T.T.T.T",
".T.T.T.T.T.T.T.T._.n.3  X6 F.T.T.T.T.T.T.T.T.T.T",
".T.T.T.T.T.T.T.T.T.`X<  .1 1 M.T.T.T.T.T.T.T.T.T",
".T.T.T.T.T.T.T.T.T.w.7.- 5.%X$Xs.T.T.T.T.T.T.T.T",
".T.T.T.T.T.T.T.T.W.Q   f.R T g.3 e.{.T.T.T.T.T.T",
".T.T.T.T.T.T.T.T.XXl.5Xz.T.T.R X ] {.w.R.T.T.T.T",
".T.T.T.T.T.T.T.T.f  XX M.T.T.T.T D.ZXx.G.W.T.T.T",
".T.T.T.T.T.T.T.T B.m X.T.T.T.T.T.T.T.$ r.{.T.T.T",
".T.T C w.H.H.H.H.H.H.H.H.H 2.(.T.T.T.T.T.T.T.T.T",
".T.T x.HXl.1.1.1.1.1.1.1.1.1.h.T.T.T.T.T.T.T.T.T",
".T.T.T.R K U U U U U U U U U._.T.T.T.T.T.T.T.T.T",
".T.T.T.T.T.T.T.T.T.T.T.T.T.T.T.T.T.T.T.T.T.T.T.T",
".T.T.T.T.T.T.T.T.T.T.T.T.T.T.T.T.T.T.T.T.T.T.T.T",
".T.T.T.T.T.T.T.T.T.T.T.T.T.T.T.T.T.T.T.T.T.T.T.T",
".T.T.T.T.T.T.T.T.T.T.T.T.T.T.T.T.T.T.T.T.T.T.T.T",
".T.T.T.T.T.T.T.T.T.T.T.T.T.T.T.T.T.T.T.T.T.T.T.T",
".T.T.T.T.T.T.T.T.T.T.T.T.T.T.T.T.T.T.T.T.T.T.T.T",
".T.T.T.T.T.T.T.T.T.T.T.T.T.T.T.T.T.T.T.T.T.T.T.T",
".T.T.T.T.T.T.T.T.T.T.T.T.T.T.T.T.T.T.T.T.T.T.T.T",
".T.T.T.T.T.T.T.T.T.T.T.T.T.T.T.T.T.T.T.T.T.T.T.T",
".T.T.T.T.T.T.T.T.T.T.T.T.T.T.T.T.T.T.T.T.T.T.T.T",
".T.T.T E.0 v.T.T.T.T.T.T.T.2X7.T.T.T.T.T.T.T.T.T",
".T.T.TX3.*.[X9.T.T.T.T.T HX8Xg E.T.T.T.T.T.T.T.T",
".T.T.T.TX, bXl.m._.T.T.T %.8.+ U.T.T.T.T.T.T.T.T",
".T.T.T.T.T x $XrX>.2 l.^X    r l.T.T.T.T.T.T.T.T",
".T.T.T.T.T.T.TXo p.3.H.rXv.1Xe.T.T.T.T.T.T.T.T.T",
".T.T.T.T.T.T.T.T lXcX>Xn  .~ v.T.T.T.T.T.T.T.T.T",
".T.T.T.T.T.T.T.T.T.T C 6.%.w.T.T.T.T.T.T.T.T.T.T",
".T.T.T.T.T.T.T.^.OXuXuXu.4XsXuXuXu.@Xo.T.T.T.T.T",
".T.T.T.T.T.T.TX+Xa                  .*X7.T.T.T.T",
".T.T.T.T.T.T.T.T. .z 1 1 1 1 1 1 1 1.xX5.T.T.T.T",
".T.T.T.T.T.T.T.T.T.T.T.T.T.T.T.T.T.T.T.T.T.T.T.T",
".T.T.`.A.H.H.H.H.H.H.H.H.H.c.(.T.T.T.T.T.T.T.T.T",
".T.T x Z  .3.1.1.1.1.1.1.1.8.V.T.T.T.T.T.T.T.T.T",
".T.T.T.@Xv.Z U U U U U U U eXlX7.T.T.T.T.T.T.T.T",
".T.T.T.T uXd Q.T.T.T.T.T.T HXw.E x.T.T.T.T.T.T.T",
".T.T.T.T UXa s.R l l l.T.T.T.d.7.0.T.T.T.T.T.T.T",
".T.T.T.T.T >.7X&X@X@X@.L.|.T n LX; B.T.T.T.T.T.T",
".T.T.T.T.T M ~XM {X4 ]Xv.H l.TXkXn.l.T.T.T.T.T.T",
".T.T.T.T.T.T.9.7 * v v.vXvXp.T l f.%X#.T.T.T.T.T",
".T.T.T.T.T.T.R.EX0 F.T.`X2.[ v.TX:Xg.G l.T.T.T.T",
".T.T.T.T.T.T.TX5.1 0 D D &XM.s D D.VXvXu.T.T.T.T",
".T.T.T.T.T.T.T.T.VXMXdXd.-.8.5XdXd.:   Z.W.T.T.T",
".T.T.T.T.T.T.T.T._.M f f f f f f f f f i.{.T.T.T",
".T.T.T.T.T.T.TX3.F T.T.T.T.T.T.T.T.T.T.T.T.T.T.T",
".T.T.T.T.T.T.T.]X6.).W.T.T.T.T.T.T.T.T.T.T.T.T.T",
".T.T.T.T.T.T.T.T.uXM +.T.T.T.T.T.T.T.T.T.T.T.T.T",
".T.T.T.T.T.T.T.T v.[X2.`.T.T.T.T.T.T.T.T.T.T.T.T",
".T.T.T.T.T.T.T.T.TXpXv 3.T.T.T.T.T.T.T.T.T.T.T.T",
".T.T.T.T.TX7 zXs.T l pXd Q.T.R.M.C n.T.T.T.T.T.T",
".T.T.T.T.T.^.K.3.S.{ E.* s l Q.%XMXh.T.T.T.T.T.T",
".T.T.T.T.T.T.R X ]X8.w.c.5Xf.c  X2 D.T.T.T.T.T.T",
".T.T.T.T.T.T.T.T D qXx m.- RX2   4.T.T.T.T.T.T.T",
".T.T.T.T.T.T.T.T.T.T.$ I      .*X:.T.T.T.T.T.T.T",
".T.T.T.T.T.T.T.T.T.T.T.^ ,.:   s.R.T.T.T.T.T.T.T",
".T.T.T.T.T.T.T.T.T.T.T.T.TX,.S.O.T.T.T.T.T.T.T.T",
".T.T.T.T.T.T.T.$.G _.T.T.T.T.T.T.T.T.T.T.T.T.T.T",
".T.T.T.T.T.T.R d  Xj 1 M.T.T.T.T.T.T.T.T.T.T.T.T",
".T.T.T.T.T.TX,Xd      X$Xs.T.T.T.T.T.T.T.T.T.T.T",
".T.T.T.T.T.T 5  X< IXg b.3.S.{.T.T.T.T.T.T.T.T.T",
".T.T.T.T.T.{ `   <XpXv.b X ]X8.w.R.T.T.T.T.T.T.T",
".T.T.T.T.TXhXMXiX* l i.- !.] qXx.P M.T.T.T.T.T.T",
".T.T.T.T.T n.B.n.R.T T.%.P l.T.$ j [.T.T.T.T.T.T",
".T.T.T.T.T.T.T.T.T.T.T.lXnXk.T.T.T.T.T.T.T.T.T.T",
".T.T.T.T.T.T.T.T.T.T.T BX;XO n.T.T.T.T.T.T.T.T.T",
".T.T.T.T.T.T.T.T.T.T.T.T ..7 *.T.T.T.T.T.T.T.T.T",
".T.T.T.T.T.T.T.T.T.T.T.T x k.o H.T.T.T.T.T.T.T.T",
".T.T.T.T.T.T.T.T.T.T.T.T.T K.Z [.T.T.T.T.T.T.T.T",
".T.T.T.T.T.T.T.T.T.T.T.T.T.T.T.T.T.T.T.T.T.T.T.T",
".T.T.TX% *.f.f.f.f.f.f.f.f.dX5.T.T.T.T.T.T.T.T.T",
".T.T.TX3.*                  Xg E.T.T.T.T.T.T.T.T",
".T.T.T.T T.4XbXbXbXm oXbXbXbXc.`.T.T.T.T.T.T.T.T",
".T.T.T.T.T.T.T.T.T.& |.b B.T.T.T.T.T.T.T.T.T.T.T",
".T.T.T.T.T.T.T.T.R p  XMX;.< l.T.T.T.T.T.T.T.T.T",
".T.T.T.T.T.T.T.TX-.%XM.j.K.3 uX..T.T.T.T.T.T.T.T",
".T.T.T.T.T.T.T.T.c   ) D l.6X<Xw.y x.T.T.T.T.T.T",
".T.T.T.T.T.T.T A /  .v.T.T.T.`.N.1.EX:.T.T.T.T.T",
".T.T.T.T.T.T.TX+Xa.*X:.T.T.T.T.T.X G.*X7.T.T.T.T",
".T.T.T.T.T.T.T.TXq.t.R.T.T.T.T.T.T.!.tX7.T.T.T.T",
".T.T.T.T.T.T.T.T.T.T.T.T.T.T.T.T.T.T.T.T.T.T.T.T"
};
