/* XPM */
static const char * const buttons_xpm[] = {
"24 144 218 2",
"  	c None",
". 	c #FFFFFF",
"+ 	c #FBFBFB",
"@ 	c #A5A5A5",
"# 	c #909090",
"$ 	c #8B8B8B",
"% 	c #8A8A8A",
"& 	c #818181",
"* 	c #7D7D7D",
"= 	c #7C7C7C",
"- 	c #7E7E7E",
"; 	c #CACACA",
"> 	c #3A3A3A",
", 	c #010101",
"' 	c #080808",
") 	c #090909",
"! 	c #0B0B0B",
"~ 	c #0A0A0A",
"{ 	c #0D0D0D",
"] 	c #0C0C0C",
"^ 	c #1A1A1A",
"/ 	c #F1F1F1",
"( 	c #ADADAD",
"_ 	c #050505",
": 	c #B2B2B2",
"< 	c #E9E9E9",
"[ 	c #F0F0F0",
"} 	c #F2F2F2",
"| 	c #8E8E8E",
"1 	c #444444",
"2 	c #F9F9F9",
"3 	c #353535",
"4 	c #505050",
"5 	c #FEFEFE",
"6 	c #252525",
"7 	c #060606",
"8 	c #B8B8B8",
"9 	c #070707",
"0 	c #959595",
"a 	c #494949",
"b 	c #F4F4F4",
"c 	c #2A2A2A",
"d 	c #C0C0C0",
"e 	c #9F9F9F",
"f 	c #020202",
"g 	c #404040",
"h 	c #FAFAFA",
"i 	c #363636",
"j 	c #515151",
"k 	c #EFEFEF",
"l 	c #292929",
"m 	c #030303",
"n 	c #B7B7B7",
"o 	c #6E6E6E",
"p 	c #434343",
"q 	c #343434",
"r 	c #040404",
"s 	c #B9B9B9",
"t 	c #C5C5C5",
"u 	c #D8D8D8",
"v 	c #FDFDFD",
"w 	c #DADADA",
"x 	c #AAAAAA",
"y 	c #9E9E9E",
"z 	c #9D9D9D",
"A 	c #A7A7A7",
"B 	c #C6C6C6",
"C 	c #B0B0B0",
"D 	c #000000",
"E 	c #161616",
"F 	c #9B9B9B",
"G 	c #CECECE",
"H 	c #D9D9D9",
"I 	c #D5D5D5",
"J 	c #969696",
"K 	c #E8E8E8",
"L 	c #191919",
"M 	c #777777",
"N 	c #717171",
"O 	c #171717",
"P 	c #EBEBEB",
"Q 	c #D1D1D1",
"R 	c #B6B6B6",
"S 	c #565656",
"T 	c #A8A8A8",
"U 	c #DEDEDE",
"V 	c #323232",
"W 	c #131313",
"X 	c #C9C9C9",
"Y 	c #333333",
"Z 	c #CCCCCC",
"` 	c #BFBFBF",
" .	c #A1A1A1",
"..	c #FCFCFC",
"+.	c #414141",
"@.	c #DCDCDC",
"#.	c #6B6B6B",
"$.	c #676767",
"%.	c #B1B1B1",
"&.	c #919191",
"*.	c #D7D7D7",
"=.	c #545454",
"-.	c #111111",
";.	c #E6E6E6",
">.	c #E5E5E5",
",.	c #E0E0E0",
"'.	c #5F5F5F",
").	c #BDBDBD",
"!.	c #AFAFAF",
"~.	c #454545",
"{.	c #141414",
"].	c #D6D6D6",
"^.	c #D4D4D4",
"/.	c #D3D3D3",
"(.	c #D2D2D2",
"_.	c #2B2B2B",
":.	c #BABABA",
"<.	c #CBCBCB",
"[.	c #F5F5F5",
"}.	c #4F4F4F",
"|.	c #F3F3F3",
"1.	c #B4B4B4",
"2.	c #0F0F0F",
"3.	c #0E0E0E",
"4.	c #646464",
"5.	c #BCBCBC",
"6.	c #7F7F7F",
"7.	c #A2A2A2",
"8.	c #898989",
"9.	c #828282",
"0.	c #151515",
"a.	c #E4E4E4",
"b.	c #949494",
"c.	c #CDCDCD",
"d.	c #1F1F1F",
"e.	c #242424",
"f.	c #696969",
"g.	c #101010",
"h.	c #DBDBDB",
"i.	c #EDEDED",
"j.	c #232323",
"k.	c #212121",
"l.	c #383838",
"m.	c #4B4B4B",
"n.	c #868686",
"o.	c #121212",
"p.	c #4A4A4A",
"q.	c #ECECEC",
"r.	c #787878",
"s.	c #6A6A6A",
"t.	c #181818",
"u.	c #EAEAEA",
"v.	c #DDDDDD",
"w.	c #E3E3E3",
"x.	c #838383",
"y.	c #606060",
"z.	c #A4A4A4",
"A.	c #9A9A9A",
"B.	c #A0A0A0",
"C.	c #C3C3C3",
"D.	c #9C9C9C",
"E.	c #929292",
"F.	c #848484",
"G.	c #767676",
"H.	c #707070",
"I.	c #F6F6F6",
"J.	c #595959",
"K.	c #4C4C4C",
"L.	c #ACACAC",
"M.	c #ABABAB",
"N.	c #D0D0D0",
"O.	c #5A5A5A",
"P.	c #3F3F3F",
"Q.	c #636363",
"R.	c #F7F7F7",
"S.	c #AEAEAE",
"T.	c #303030",
"U.	c #525252",
"V.	c #C2C2C2",
"W.	c #666666",
"X.	c #373737",
"Y.	c #1C1C1C",
"Z.	c #C8C8C8",
"`.	c #EEEEEE",
" +	c #222222",
".+	c #393939",
"++	c #5C5C5C",
"@+	c #E7E7E7",
"#+	c #3E3E3E",
"$+	c #1B1B1B",
"%+	c #2D2D2D",
"&+	c #3C3C3C",
"*+	c #585858",
"=+	c #939393",
"-+	c #1D1D1D",
";+	c #5B5B5B",
">+	c #3B3B3B",
",+	c #E2E2E2",
"'+	c #E1E1E1",
")+	c #4D4D4D",
"!+	c #B5B5B5",
"~+	c #BBBBBB",
"{+	c #8C8C8C",
"]+	c #1E1E1E",
"^+	c #3D3D3D",
"/+	c #979797",
"(+	c #282828",
"_+	c #484848",
":+	c #BEBEBE",
"<+	c #C4C4C4",
"[+	c #858585",
"}+	c #6D6D6D",
"|+	c #7A7A7A",
"1+	c #888888",
"2+	c #6C6C6C",
"3+	c #656565",
"4+	c #8F8F8F",
"5+	c #8D8D8D",
". . . + @ # # $ % % & * = - ; . . . . . . . . . ",
". . . + > , ' ) ! ~ ! { ] , ^ / . . . . . . . . ",
". . . . ( _ : < [ [ [ } | , 1 + . . . . . . . . ",
". . . . 2 3 4 5 . . . } 6 7 8 . . . . . . . . . ",
". . . . . ( 9 ; . . . 0 , a + . . . . . . . . . ",
". . . . . 2 3 4 5 . b c _ d . . . . . . . . . . ",
". . . . . . ( 9 ; . e f g h . . . . . . . . . . ",
". . . . . . 2 i j k l m n . . . . . . . . . . . ",
". . . . . . . ( 9 o , p h . . . . . . . . . . . ",
". . . . . . . 2 q f r s . . . . . . . . . . . . ",
". . . . . . . . : r g 2 . . . . . . . . . . . . ",
". . . . . . . . . t u . . . . . . . . . . . . . ",
". . . . . v w x y z A B } . . . . . . . . . . . ",
". . . . . C ' D f r m f E F 5 . . . . . . . . . ",
". . . . . e D o G H I B & ) J . . . . . . . . . ",
". . . . . K L M . . . . . N O P . . . . . . . . ",
". . . . . . Q R . . . . [ S D T . . . . . . . . ",
". . . . . . . . . . . U V D W X . . . . . . . . ",
". . . . . . . . . . . $ D Y Z . . . . . . . . . ",
". . . . . . . . . . . ` f  .. . . . . . . . . . ",
". . . . . . . . . . . ..+.+.v . . . . . . . . . ",
". . . . . . . . . . . . @.#./ . . . . . . . . . ",
". . . . . . . . . . . . . % $.v . . . . . . . . ",
". . . . . . . . . . . . . / %.h . . . . . . . . ",
". . . . X &.&.&.# &.# &.# 0 *.. . . . . . . . . ",
". . . 5 =., ' ' ' 9 ' 9 ' 7 -.u . . . . . . . . ",
". . . . ( _ : ;.;.>.;.;.;.,.l '.5 . . . . . . . ",
". . . . 2 3 4 h ).!.!.!.C *.e ) I . . . . . . . ",
". . . . . ( 9 t ~.m f f f {.].c '.5 . . . . . . ",
". . . . . 2 q 4 b ^./.(./.].2 e ) I . . . . . . ",
". . . . . . ( 9 ; } /./.(./.H / _.'.5 . . . . . ",
". . . . . . 2 3 j :.9 f f f r N e ~ I . . . . . ",
". . . . . . . ( 9 X X !.C !.C <.[.c '.5 . . . . ",
". . . . . . . 2 q }.} |.|.|.|.|.|.0 ) I . . . . ",
". . . . . . . . 1.7 { 2.2.2.3.2.3.{ D 4.. . . . ",
". . . . . . . . . 5.6.= * * * = * = = 7.5 . . . ",
". . . 5 : % % 8.* * = = = 9./.. . . . . . . . . ",
". . . h V f ! ! ] 3.2.3.2.! 0.a.. . . . . . . . ",
". . . . b.~ c.[ / } |.|.|.< d.N . . . . . . . . ",
". . . . } e.f.. . . . . . . 8.g.>.. . . . . . . ",
". . . . . 0 ] h.v v v 5 . . i.^ M . . . . . . . ",
". . . . . } j.k.i l.l.m.I . . n.o.>.. . . . . . ",
". . . . . . 0 , i a p.j.i + . q.O r.. . . . . . ",
". . . . . . } j.s.5 . ; 7 !.. . r.t.u.. . . . . ",
". . . . . . . b.! v.. 5 }.q + . w.-.x.. . . . . ",
". . . . . . . } j.y.*.*.z.m A.u h.4.L u.. . . . ",
". . . . . . . . B.r r r r D f r r _ D | . . . . ",
". . . . . . . . 5 C.z z z F A.D.z J E.c.. . . . ",
". . . 5 ( % 8.F.= * G.#.s.H.).. . . . . . . . . ",
". . . 5 a , ~ ! { 2.2.{.O {.) (.. . . . . . . . ",
". . . . s _ n [ } |.|.[.I.|.V J.5 . . . . . . . ",
". . . . ..g K.v . . . . . . L.' Q . . . . . . . ",
". . . . . 8 7 t . . . . . . 2 Y J.5 . . . . . . ",
". . . . . ..g K.v . . . . . . M.' N.. . . . . . ",
". . . . . . s 9 B . . . . . . 2 q O.5 . . . . . ",
". . . . . . ..P.K.v . . . . . . M.' Q . . . . . ",
". . . . . . . 8 7 t . . . . . . 2 Y J.5 . . . . ",
". . . . . . . ..P.a >.;.;.;.>.;.;.J 9 Q . . . . ",
". . . . . . . . ).9 9 ' 9 ' 9 ' ' 9 D Q.. . . . ",
". . . . . . . . . C.E.# &.# &.# &.&.# :.. . . . ",
". . . . . . . . v R.. . . . . . . . . . . . . . ",
". . . . . . . . w.e.` . . . . . . . . . . . . . ",
". . . . . . . . v j 3 + . . . . . . . . . . . . ",
". . . . . . . . . X _ S.. . . . . . . . . . . . ",
". . . . . . . . . v 4 q + . . . . . . . . . . . ",
". . . . . . *.}.a p.T., P.p.a U.V.. . . . . . . ",
". . . . . . |.W.X.X.l.Y.m 3 X.X.G.5 . . . . . . ",
". . . . . . . . v v v Z._ L.v v 5 . . . . . . . ",
". . . . . . . . . . . 5 4 3 + . . . . . . . . . ",
". . . . . . . . . . . . X 7 S.. . . . . . . . . ",
". . . . . . . . . . . . 5 y.p v . . . . . . . . ",
". . . . . . . . . . . . . 2 h.5 . . . . . . . . ",
". . . . `.b . . . . . . . P R.. . . . . . . . . ",
". . . . z  +x v . . . . I..+m.h . . . . . . . . ",
". . . . h | -.++@+. . . e f > h . . . . . . . . ",
". . . . . . ].#+$+( v [.%+r 1.. . . . . . . . . ",
". . . . . . . 2 % 2.O.b.f P.2 . . . . . . . . . ",
". . . . . . . . . I &+f f S.. . . . . . . . . . ",
". . . . . . . . . . F , , *+;.. . . . . . . . . ",
". . . . . . . . . b %+m =++.-+( 5 . . . . . . . ",
". . . . . . . . . T f #+h 2 % g.;+;.. . . . . . ",
". . . . . . . . [.V f !.. . . I g $+( 5 . . . . ",
". . . . . . . . P $+>+R.. . . . 2 | o.T . . . . ",
". . . . . . . . . w.,+. . . . . . . a.'+. . . . ",
". . . . . . . . ..} . . . . . . . . . . . . . . ",
". . . . . . . . ,+k.` . . . . . . . . . . . . . ",
". . . . . . . . 5 }.Y h . . . . . . . . . . . . ",
". . . . . . . . . X 7 !.. . . . . . . . . . . . ",
". . . . . . . . . 5 )+i ... . . . . . . . . . . ",
". . . . . . ;.!+2 . ~+r :.. . c.F h . . . . . . ",
". . . . . . a.j.P.I ..P.#+..h ~.r B . . . . . . ",
". . . . . . . ;.++-.{+1._ ~+~+7 l / . . . . . . ",
". . . . . . . . v x d.X.]+^+1 , A.. . . . . . . ",
". . . . . . . . . . P y.m , f _.[ . . . . . . . ",
". . . . . . . . . . . 5 s j., /+. . . . . . . . ",
". . . . . . . . . . . . . [ : I.. . . . . . . . ",
". . . . . . . . . . . . . . . . . . . . . . . . ",
". . . . . . . . . . . . . . . . . . . . . . . . ",
". . . . . . . . . . . . . . . . . . . . . . . . ",
". . . . . . . . . . . . . . . . . . . . . . . . ",
". . . . . . . v v 5 . . . . . . . . . . . . . . ",
". . . . . . 1..+X.#+p 4 <.. . . . . . . . . . . ",
". . . . . . R f %+p.~.(+e.[.. . . . . . . . . . ",
". . . . . . + #+K.v . @.) J . . . . . . . . . . ",
". . . . . . . 8 7 t . . ;+l R.. . . . . . . . . ",
". . . . . . . ..P._+>.;.( r 7.. . . . . . . . . ",
". . . . . . . . :+9 9 ' _ D 3 ... . . . . . . . ",
". . . . . . . . . <+E.&.&.A.1.v . . . . . . . . ",
". . . . . . . . . . . . . . . . . . . . . . . . ",
". . . . . . . . . . . . . . . . . . . . . . . . ",
". . . . . . . . . . . . . . . . . . . . . . . . ",
". . . . . . . . . . . . . . . . . . . . . . . . ",
". . . . . . . . . . . . . . . . . . . . . . . . ",
". . . . . . @.}.p.a p.p.p.a p.p.[++ . . . . . . ",
". . . . . . I.f.l.X.X.l.l.X.X.X.+.a.. . . . . . ",
". . . . . . . . v v v v v v v v v . . . . . . . ",
". . . . . . . . . . . . . . . . . . . . . . . . ",
". . . . . . . . . . . . . . . . . . . . . . . . ",
". . . . . . . . . . . . . . . . . . . . . . . . ",
". . . . . . . . . . . . . . . . . . . . . . . . ",
". . . . !.s.#.#.s.#.#.}+|+F.w . . . . . . . . . ",
". . . . ~+e.O O O E t.O W 3.U.v . . . . . . . . ",
". . . . . h I.I.I.I.R.R.I.|.R.. . . . . . . . . ",
". . . . . . . . . . . . . . . . . . . . . . . . ",
". . . . . . . . . . . . . . . . . . . . . . . . ",
". . . . . . . . . . . . . . . . . . . . . . . . ",
". . . . . . . . . . . . . . . . . . . . . . . . ",
". . . . . . . . . . . . . . . . . . . . . . . . ",
". . . . . . . . . . . . . . . . . . . . . . . . ",
". . . . . . . . . . . . . . . . . . . . . . . . ",
". . . . . . . . . . . . . . . . . . . . . . . . ",
". . . . . . . . . . . . . . . . . . . . . . . . ",
". . . . . . . . (.A R.. . . . . . . . . . . . . ",
". . . . . . . h g D i N.. . . . . . . . . . . . ",
". . . . . . . :._ m , ] 1+2 . . . . . . . . . . ",
". . . . . . h a , 2+7 3+-+#+(.. . . . . . . . . ",
". . . . . . C.9 (+i.}.Y a.'.g.4+2 . . . . . . . ",
". . . . . . b.f | . ; 7 !.5 x ^ Q.v . . . . . . ",
". . . . . . I.S.k . 5 K.i + . @+: + . . . . . . ",
". . . . . . . . . . . ~+r s . . . . . . . . . . ",
". . . . . . . . . . . ..P.g ... . . . . . . . . ",
". . . . . . . . . . . . :.7 :.. . . . . . . . . ",
". . . . . . . . . . . . v = 5+. . . . . . . . . ",
". . . . . . . . . . . . . . 5 . . . . . . . . . "};
