#define corner_width 4
#define corner_height 4
static unsigned char corner_bits[] = {
   0x0f, 0x09, 0x09, 0x0f };
