#define tail_width 9
#define tail_height 17
static unsigned char tail_bits[] = {
   0xff, 0x01, 0xfe, 0x01, 0xfc, 0x01, 0xfc, 0x01, 0xf8, 0x01, 0xf8, 0x01,
   0xf0, 0x01, 0xf0, 0x01, 0xe0, 0x01, 0xe0, 0x01, 0xc0, 0x01, 0xc0, 0x01,
   0x80, 0x01, 0x80, 0x01, 0x00, 0x01, 0x00, 0x01, 0x00, 0x01 };
